<svg width="108" height="19" viewBox="0 0 108 19" fill="none" xmlns="http://www.w3.org/2000/svg">
<path fill-rule="evenodd" clip-rule="evenodd" d="M7.75467 0.110624C4.99708 0.540423 2.4134 2.41877 1.10472 4.94526C0.303886 6.49151 0 7.74248 0 9.49368C0 11.2753 0.28038 12.4338 1.09688 14.0259C2.36873 16.5061 4.72025 18.2738 7.49441 18.8353C8.48232 19.0352 10.1531 19.0563 11.157 18.8814C12.7656 18.6012 14.3473 17.8623 15.6152 16.7985C16.0188 16.46 16.9634 15.4056 16.9634 15.2936C16.9634 15.2273 14.5182 13.4016 14.3367 13.3324C14.2802 13.3109 14.0938 13.4618 13.9225 13.6677C13.2076 14.5273 11.9267 15.3134 10.7922 15.5887C10.0846 15.7603 8.78233 15.7649 8.05921 15.5982C5.46551 15.0001 3.62119 12.6792 3.49534 9.85466C3.36626 6.95885 4.90071 4.51987 7.43835 3.58704C8.33022 3.25919 9.71935 3.17729 10.7028 3.3946C11.6834 3.61126 12.6626 4.15256 13.4924 4.93676L14.1919 5.59774L15.5372 4.6329C16.2771 4.10227 16.8826 3.63982 16.8826 3.60533C16.8826 3.57075 16.7083 3.3447 16.4952 3.10301C15.0625 1.47711 13.2737 0.485876 11.09 0.107656C10.2541 -0.0370539 8.69339 -0.0356902 7.75467 0.110624ZM24.9664 6.01125C23.6585 6.2661 22.2629 7.04131 21.4076 7.98818C20.8305 8.62695 20.4109 9.35699 20.1043 10.2557C19.8683 10.9475 19.841 11.1293 19.808 12.2267C19.7652 13.6511 19.8993 14.3364 20.4362 15.438C21.0773 16.7531 22.1017 17.7678 23.3852 18.3585C24.442 18.8451 24.9454 18.9559 26.0912 18.9546C27.6525 18.9527 28.7799 18.5608 29.6657 17.7119L30.1301 17.2668V18.0127V18.7587H31.7861H33.442V12.4617V6.16471H31.7861H30.1301V6.88842V7.61205L29.6924 7.17736C28.881 6.37167 27.5836 5.91724 26.1389 5.93288C25.6907 5.9377 25.163 5.97299 24.9664 6.01125ZM44.3353 5.99714C43.8342 6.15885 43.1116 6.61536 42.7413 7.00409C42.3663 7.39795 41.9526 8.09495 41.7165 8.73075C41.6239 8.98014 41.6113 8.84914 41.6063 7.58855L41.6006 6.16471H39.9447H38.2887V12.4617V18.7587H39.9447H41.6006V16.2287C41.6006 12.8057 41.7185 11.8091 42.2622 10.6365C42.5207 10.0789 43.0426 9.50804 43.5164 9.26475C44.0966 8.96682 45.5843 8.94332 46.4249 9.21886C46.5764 9.26852 46.7107 9.29651 46.7232 9.28111C46.8086 9.17579 47.2655 6.38442 47.2065 6.32891C47.1666 6.29137 46.9521 6.198 46.73 6.12139C46.2778 5.96561 44.6887 5.88315 44.3353 5.99714ZM56.1668 6.15452C55.3779 6.42718 54.5582 6.98347 54.186 7.4987L53.9192 7.8681L53.8963 7.01636L53.8733 6.16471H52.1798H50.4862V12.4617V18.7587H52.1796H53.8729L53.8989 14.8882C53.9179 12.0563 53.9521 10.9377 54.0263 10.719C54.3213 9.84944 55.2462 9.22007 56.3308 9.151C57.4599 9.07905 58.2551 9.49753 58.7004 10.3982L58.9274 10.8574L58.9506 14.808L58.9737 18.7587H60.6671H62.3605L62.36 14.7679C62.3595 9.70361 62.2723 9.02907 61.4588 7.78909C60.6291 6.52456 59.4017 5.92655 57.635 5.9263C56.9556 5.92622 56.7223 5.96248 56.1668 6.15452ZM71.2865 6.04478C69.1849 6.51301 67.5522 7.82454 66.7657 9.67626C66.3665 10.6162 66.2378 11.3009 66.2378 12.4847C66.2378 13.7019 66.3889 14.4025 66.8692 15.4124C67.6287 17.0093 68.8615 18.0934 70.5999 18.693C71.3602 18.9552 71.3806 18.9576 72.8212 18.9538C74.0562 18.9505 74.3726 18.9235 74.9215 18.7749C75.9412 18.4987 76.9823 17.9482 77.6268 17.3444C78.0956 16.9053 78.6776 16.1682 78.6776 16.0137C78.6776 15.9614 76.2759 14.6655 76.1919 14.6725C76.1595 14.6753 76.0236 14.8272 75.8898 15.0102C74.8039 16.4954 71.7862 16.6456 70.3709 15.285C69.9671 14.8967 69.6576 14.3425 69.5818 13.8721L69.5291 13.5446H74.3399H79.1507L79.2079 13.0901C79.3358 12.0733 79.0287 10.2203 78.5885 9.35298C77.7403 7.68176 76.103 6.42188 74.2987 6.05176C73.5407 5.89622 71.9694 5.89261 71.2865 6.04478ZM88.9537 6.07085C87.9743 6.41811 87.256 7.12032 86.7203 8.2545L86.4381 8.85195L86.4352 7.50833L86.4323 6.16471H84.736H83.0396V12.4617V18.7587H84.7295H86.4194L86.4555 15.5701C86.4959 12.01 86.5271 11.7528 87.0567 10.6294C87.6577 9.35459 88.6099 8.87939 90.2221 9.04953C90.6034 9.08979 91.0354 9.16528 91.1821 9.21718C91.3288 9.26916 91.4659 9.29467 91.4868 9.27397C91.5138 9.2471 92.0805 6.48341 92.0861 6.35097C92.0865 6.34311 91.8777 6.2568 91.6223 6.15917C90.9556 5.90433 89.5542 5.85796 88.9537 6.07085ZM99.4436 6.01125C98.0076 6.29105 96.5418 7.1723 95.6682 8.28113C94.6397 9.58641 94.2048 11.0236 94.2893 12.8381C94.341 13.9491 94.4776 14.4654 95.0051 15.5426C95.3637 16.2748 95.5049 16.4671 96.1535 17.1068C96.9746 17.9167 97.5327 18.2793 98.4549 18.6022C99.8008 19.0735 101.208 19.1136 102.405 18.7147C103.26 18.4302 103.709 18.1735 104.196 17.6931L104.607 17.2864V18.0225V18.7587H106.304H108V12.4601V6.16142L106.324 6.18316L104.648 6.20482L104.625 6.88842L104.602 7.57202L104.153 7.14062C103.635 6.64256 102.842 6.24845 101.966 6.05345C101.343 5.91483 100.05 5.89318 99.4436 6.01125ZM72.0573 8.73813C70.7852 8.96089 69.7988 9.8695 69.5173 11.078L69.4659 11.2985H72.6985C76.3966 11.2985 76.0774 11.3797 75.7598 10.5195C75.5279 9.89139 74.7771 9.14546 74.1378 8.90794C73.5978 8.70724 72.6672 8.63136 72.0573 8.73813ZM26.0105 9.14282C24.9511 9.31344 23.7912 10.2262 23.4361 11.1688C22.7955 12.8689 23.4824 14.6527 25.0797 15.4366C26.8894 16.3248 29.2024 15.5419 29.9 13.8051C30.1675 13.1393 30.1675 11.7841 29.9 11.1183C29.4998 10.1219 28.4 9.3002 27.2442 9.13423C26.6243 9.04519 26.6161 9.04527 26.0105 9.14282ZM100.553 9.13905C99.1493 9.34344 97.9671 10.5224 97.7449 11.9389C97.515 13.405 98.2485 14.7962 99.5991 15.4558C101.469 16.3689 103.88 15.4659 104.448 13.6397C104.662 12.9516 104.661 11.9683 104.447 11.2869C104.098 10.1805 103.057 9.34135 101.78 9.13752C101.198 9.04463 101.201 9.04463 100.553 9.13905Z" fill="white"/>
</svg>
